HIERARCHY
ROOT Hips
{
	OFFSET 0.000000 0.000000 0.000000
	CHANNELS 6 Xposition Yposition Zposition Yrotation Xrotation Zrotation
	JOINT Chest
	{
		OFFSET 0.000000 -0.009281 11.569106
		CHANNELS 3 Yrotation Xrotation Zrotation
		JOINT Chest2
		{
			OFFSET -0.000000 0.016865 9.269641
			CHANNELS 3 Yrotation Xrotation Zrotation
			JOINT Chest3
			{
				OFFSET -0.000000 0.000001 8.374491
				CHANNELS 3 Yrotation Xrotation Zrotation
				JOINT Chest4
				{
					OFFSET -0.000000 0.000001 8.374493
					CHANNELS 3 Yrotation Xrotation Zrotation
					JOINT Neck
					{
						OFFSET -0.000000 0.000002 12.152554
						CHANNELS 3 Yrotation Xrotation Zrotation
						JOINT Head
						{
							OFFSET -0.000000 0.040101 7.802319
							CHANNELS 3 Yrotation Xrotation Zrotation
							End Site
							{
								OFFSET -0.000000 0.020947 14.853096
							}
						}
					}
					JOINT RightCollar
					{
						OFFSET 2.894404 0.000001 6.791374
						CHANNELS 3 Yrotation Xrotation Zrotation
						JOINT RightShoulder
						{
							OFFSET 13.574684 0.000001 0.000000
							CHANNELS 3 Yrotation Xrotation Zrotation
							JOINT RightElbow
							{
								OFFSET 23.923903 0.000002 0.000000
								CHANNELS 3 Yrotation Xrotation Zrotation
								JOINT RightWrist
								{
									OFFSET 19.846718 0.012767 0.000000
									CHANNELS 3 Yrotation Xrotation Zrotation
									End Site
									{
										OFFSET 14.973145 0.000001 0.000000
									}
								}
							}
						}
					}
					JOINT LeftCollar
					{
						OFFSET -2.894404 0.000001 6.791374
						CHANNELS 3 Yrotation Xrotation Zrotation
						JOINT LeftShoulder
						{
							OFFSET -13.574684 -0.000001 0.000000
							CHANNELS 3 Yrotation Xrotation Zrotation
							JOINT LeftElbow
							{
								OFFSET -23.923903 -0.000002 0.000000
								CHANNELS 3 Yrotation Xrotation Zrotation
								JOINT LeftWrist
								{
									OFFSET -19.846718 0.012763 0.000000
									CHANNELS 3 Yrotation Xrotation Zrotation
									End Site
									{
										OFFSET -14.973145 -0.000001 0.000000
									}
								}
							}
						}
					}
				}
			}
		}
	}
	JOINT RightHip
	{
		OFFSET 9.469263 0.004643 0.045487
		CHANNELS 3 Yrotation Xrotation Zrotation
		JOINT RightKnee
		{
			OFFSET 0.000000 0.002661 -40.478676
			CHANNELS 3 Yrotation Xrotation Zrotation
			JOINT RightAnkle
			{
				OFFSET 0.000000 0.049106 -35.224068
				CHANNELS 3 Yrotation Xrotation Zrotation
				JOINT RightToe
				{
					OFFSET -0.000001 12.539529 -6.151390
					CHANNELS 3 Yrotation Xrotation Zrotation
					End Site
					{
						OFFSET -0.000001 5.044994 -1.291870
					}
				}
			}
		}
	}
	JOINT LeftHip
	{
		OFFSET -9.469263 0.004641 0.045487
		CHANNELS 3 Yrotation Xrotation Zrotation
		JOINT LeftKnee
		{
			OFFSET 0.000000 0.002661 -40.478676
			CHANNELS 3 Yrotation Xrotation Zrotation
			JOINT LeftAnkle
			{
				OFFSET 0.000000 0.049106 -35.224068
				CHANNELS 3 Yrotation Xrotation Zrotation
				JOINT LeftToe
				{
					OFFSET -0.000001 12.539529 -6.151390
					CHANNELS 3 Yrotation Xrotation Zrotation
					End Site
					{
						OFFSET -0.000001 5.044994 -1.291870
					}
				}
			}
		}
	}
}
MOTION
Frames: 9
Frame Time: 0.016667
12.528545 5.029234 82.951797 -6.435729 -3.883343 -112.964615 0.152305 -1.168672 1.290286 0.079203 -0.515136 0.550483 0.079203 -0.515137 0.550480 0.059867 -0.386281 0.412925 0.707021 -22.291697 -1.409293 0.887918 -5.211675 -2.350209 9.560350 -1.129439 -3.768317 72.292607 7.269535 10.696624 -13.070031 25.336797 -12.934014 15.775126 -3.697605 -19.420152 -9.793553 -2.489015 -1.571362 -80.989999 5.406992 -10.459046 11.454327 34.596858 4.944116 6.445119 9.859518 10.503692 -0.203798 -10.463250 -1.087051 0.764313 -4.379510 -2.714563 0.365755 6.802322 3.419036 -0.023720 0.018364 -0.048325 -0.289935 -12.112534 0.331880 0.504286 -1.280487 4.096401 0.301938 5.936604 -0.543433 0.063993 -0.052906 0.050096 
12.495686 5.057816 82.956665 -6.357172 -3.850806 -112.911162 0.144662 -1.081900 1.300884 0.076283 -0.476243 0.555900 0.076283 -0.476243 0.555897 0.057646 -0.357112 0.416982 0.742480 -22.503699 -1.436269 0.947444 -5.605002 -2.389156 9.518361 -1.111329 -3.799378 71.291882 7.544789 12.076078 -13.616144 23.267961 -13.773730 15.549173 -5.281447 -20.077525 -9.704256 -2.451531 -1.613494 -80.849817 5.125386 -11.276536 11.843083 35.418332 5.160161 8.696491 10.308498 10.720247 -0.189694 -10.432150 -1.062158 0.735693 -4.208282 -2.832432 0.415408 6.688805 3.470802 -0.037749 0.013228 -0.048112 -0.272313 -12.032933 0.331432 0.491845 -1.192021 4.006014 0.306014 5.853929 -0.532270 0.067508 -0.052426 0.050934 
12.458356 5.088714 82.962341 -6.281118 -3.816487 -112.856281 0.135820 -1.002061 1.302336 0.072764 -0.440598 0.556486 0.072764 -0.440598 0.556484 0.054974 -0.330383 0.417415 0.771168 -22.714977 -1.455401 0.996925 -5.997060 -2.415947 9.471686 -1.019169 -3.833991 70.376555 7.747925 13.520330 -14.194608 21.814813 -14.568353 15.251121 -6.594459 -20.716614 -9.637691 -2.347964 -1.668885 -80.709866 4.908400 -12.043901 12.017778 36.369094 5.191485 11.100295 10.961476 10.711711 -0.173621 -10.396947 -1.043991 0.700529 -4.043338 -2.948387 0.465997 6.576075 3.515446 -0.048596 0.008615 -0.049228 -0.265932 -11.944825 0.342179 0.486743 -1.110936 3.906441 0.309964 5.768025 -0.527233 0.071512 -0.052078 0.052207 
12.417149 5.121736 82.968826 -6.209429 -3.784045 -112.801626 0.124624 -0.932253 1.299758 0.068345 -0.409391 0.555908 0.068345 -0.409391 0.555911 0.051632 -0.306981 0.416973 0.803628 -22.915667 -1.475802 1.052756 -6.369386 -2.444152 9.431627 -0.873972 -3.876768 69.484122 7.975548 14.997651 -14.662669 20.725825 -15.214678 14.815059 -7.771149 -21.270063 -9.564554 -2.221741 -1.731981 -80.621627 4.797632 -12.839080 12.015971 37.290015 5.069030 13.439790 11.738406 10.427295 -0.159851 -10.364021 -1.037916 0.663758 -3.875497 -3.063998 0.517614 6.457985 3.582176 -0.055476 0.004371 -0.049422 -0.256258 -11.859110 0.362378 0.480058 -1.032003 3.807509 0.309481 5.679624 -0.534829 0.075899 -0.050493 0.052462 
12.372385 5.157159 82.975746 -6.146129 -3.753786 -112.754211 0.114001 -0.873868 1.298122 0.064031 -0.383359 0.555533 0.064031 -0.383360 0.555531 0.048371 -0.287462 0.416687 0.847531 -23.094924 -1.504195 1.126799 -6.701772 -2.483802 9.385200 -0.722662 -3.935050 68.645218 8.229528 16.540828 -15.027379 19.718623 -15.680332 14.260410 -8.887489 -21.703942 -9.499987 -2.104596 -1.812310 -80.537110 4.685130 -13.680273 11.783175 38.193134 4.789828 15.858446 12.626885 9.864286 -0.151278 -10.331241 -1.041322 0.632992 -3.718804 -3.168215 0.566988 6.342975 3.646722 -0.062967 0.000229 -0.050939 -0.252763 -11.774687 0.392623 0.473058 -0.959832 3.714037 0.309820 5.590543 -0.537572 0.080918 -0.049246 0.053867 
12.322427 5.192014 82.983398 -6.091363 -3.729858 -112.719910 0.112134 -0.817866 1.287284 0.063157 -0.358730 0.551165 0.063157 -0.358731 0.551164 0.047691 -0.268990 0.413407 0.890587 -23.262839 -1.529111 1.200114 -7.013111 -2.517589 9.325095 -0.637563 -3.974220 67.916505 8.506134 18.226676 -15.348174 18.589798 -16.018469 13.612418 -10.053482 -21.965257 -9.457900 -1.979867 -1.847396 -80.428838 4.395998 -14.463549 11.299144 39.139894 4.278153 18.296299 13.564075 9.138289 -0.138564 -10.295765 -1.033482 0.593002 -3.576968 -3.262789 0.619263 6.229815 3.711580 -0.068471 -0.003108 -0.051035 -0.244860 -11.701293 0.436939 0.464390 -0.884336 3.623792 0.306713 5.495716 -0.545399 0.085022 -0.046048 0.055432 
12.264112 5.230770 82.991341 -6.040630 -3.704319 -112.700853 0.106294 -0.761012 1.276658 0.060148 -0.334516 0.546424 0.060149 -0.334516 0.546419 0.045410 -0.250833 0.409849 0.936074 -23.424940 -1.552802 1.278062 -7.313609 -2.548667 9.260505 -0.549577 -4.004102 67.289822 8.692343 19.994291 -15.698186 17.433651 -16.305591 12.732115 -11.271829 -21.984765 -9.421583 -1.869336 -1.876374 -80.320176 3.966669 -15.203590 10.643503 40.079762 3.565826 20.699551 14.719807 8.421782 -0.131899 -10.238302 -1.001794 0.555871 -3.471045 -3.331149 0.666057 6.129049 3.736015 -0.073486 -0.006781 -0.052708 -0.247719 -11.624188 0.485843 0.461416 -0.810931 3.552683 0.300737 5.396201 -0.563214 0.089037 -0.043431 0.056437 
12.196748 5.274805 82.998795 -5.997060 -3.682613 -112.698668 0.097288 -0.717636 1.273535 0.055228 -0.316016 0.544067 0.055228 -0.316015 0.544065 0.041702 -0.236964 0.408078 0.980123 -23.579843 -1.575610 1.353573 -7.600745 -2.578672 9.203318 -0.498496 -4.042437 66.732943 8.760503 21.889071 -16.069712 16.364237 -16.594138 11.530073 -12.458494 -21.796990 -9.381754 -1.813891 -1.948451 -80.189501 3.520157 -15.979844 9.778506 40.960255 2.672856 22.859835 15.711795 7.822671 -0.133533 -10.162200 -0.946578 0.530723 -3.401734 -3.396417 0.703356 6.039182 3.727781 -0.075497 -0.010571 -0.054864 -0.257924 -11.545587 0.543940 0.465552 -0.746272 3.497881 0.291566 5.297722 -0.582166 0.092112 -0.043011 0.057570 
12.121603 5.321970 83.006241 -5.959139 -3.661585 -112.708729 0.083559 -0.691423 1.276825 0.048025 -0.304639 0.545288 0.048024 -0.304640 0.545287 0.036290 -0.228437 0.408990 1.025321 -23.725779 -1.604292 1.429523 -7.871218 -2.619061 9.164014 -0.383204 -4.039289 66.235582 8.679380 23.749789 -16.470895 15.413924 -16.860332 10.060420 -13.554655 -21.473544 -9.322836 -1.781231 -2.059032 -80.077855 3.089597 -16.783308 8.721959 41.774274 1.610300 24.805381 16.540363 7.360033 -0.141197 -10.072633 -0.898567 0.504952 -3.354982 -3.444843 0.738166 5.955043 3.744654 -0.073854 -0.016109 -0.056401 -0.272699 -11.463906 0.608609 0.470380 -0.689433 3.435543 0.286209 5.198780 -0.589084 0.092350 -0.043030 0.058176 
